<svg width="37" height="49" viewBox="0 0 37 49" fill="none" xmlns="http://www.w3.org/2000/svg">
<path d="M15.916 47.9068C14.1495 47.0295 12.3343 45.0931 7.06492 38.4647C3.41907 33.8785 0.291456 29.5897 0.114649 28.9339C-0.409383 26.9904 0.913819 25.247 3.04646 25.0712C4.57481 24.9451 5.10096 25.1807 6.33275 26.5427C7.13938 27.4345 8.49816 28.9367 9.35226 29.8809L10.9052 31.5977L10.9199 18.5119C10.9326 7.28267 11.0459 5.31677 11.7194 4.65533C12.7583 3.63505 14.087 3.6797 15.0905 4.7686C15.768 5.50389 15.9281 7.13401 16.0419 14.4559C16.1575 21.8944 16.2948 23.2592 16.9278 23.2592C17.5669 23.2592 17.6968 21.6775 17.8119 12.496C17.9265 3.34698 18.0692 1.59994 18.7633 0.846702C19.8034 -0.282071 21.0442 -0.282241 22.0841 0.846235C22.7747 1.59562 22.9211 3.31273 23.0355 12.0051C23.1507 20.7507 23.2822 22.2782 23.92 22.2782C24.5523 22.2782 24.7081 20.7638 24.9189 12.5721C25.1786 2.47846 25.3056 1.93758 27.4161 1.93758C29.5393 1.93758 29.6533 2.44509 29.9133 13.0626C30.1246 21.6903 30.2783 23.2592 30.9122 23.2592C31.5359 23.2592 31.7031 21.9627 31.911 15.5148C32.1096 9.35624 32.3142 7.67536 32.9099 7.30644C34.0204 6.61881 35.2357 6.72928 36.1206 7.59831C37.2829 8.73978 37.2977 40.7624 36.1372 43.4901C34.2834 47.8474 31.7571 48.9849 23.9009 48.9996C18.903 49.0089 17.8435 48.8639 15.9161 47.9068H15.916Z" fill="white"/>
</svg>
