<svg width="44" height="60" viewBox="0 0 44 60" fill="none" xmlns="http://www.w3.org/2000/svg">
<path d="M2.37607 59.1729C-0.820556 57.3703 -0.794618 55.345 2.47115 51.7503C3.85065 50.2319 6.77653 47.8863 8.9731 46.5381C11.5838 44.9356 12.8385 43.7541 12.5963 43.1263C12.1529 41.9773 12.0671 41.9725 8.67323 42.9097C4.8293 43.9711 2.7208 43.2784 2.7208 40.9543C2.7208 38.5921 7.41015 24.3594 8.66094 22.9254C10.113 21.2605 17.0761 19.3689 21.7524 19.3689C24.2611 19.3689 27.8248 19.9787 30.5105 20.8675L35.0388 22.366L38.2644 31.9907C41.2052 40.7657 41.3938 41.7111 40.3999 42.6996C39.4602 43.634 38.8138 43.6698 35.7168 42.9589C32.8438 42.2995 32.0109 42.3091 31.5603 43.0071C31.1956 43.572 31.54 44.243 32.5361 44.9085C33.3828 45.4741 35.9351 47.1711 38.208 48.6794C42.8516 51.7612 44.5122 54.1051 43.866 56.6655C43.1463 59.5174 40.8803 59.9922 27.9914 59.9922C15.7157 59.9922 14.4416 59.7237 14.4416 57.1367C14.4416 55.362 16.2974 54.6434 23.7595 53.5287C27.439 52.979 30.5981 52.3815 30.7796 52.201C30.9612 52.0204 29.3461 51.32 27.1906 50.6443C23.3071 49.4269 23.2299 49.4301 18.6842 50.9954C16.1612 51.8642 13.3988 53.2179 12.5456 54.0035C10.8485 55.5662 10.5243 57.8794 11.8216 59.1695C12.9331 60.2748 4.33562 60.278 2.37607 59.1721V59.1729ZM22.0201 29.1391C22.8497 29.1391 24.1042 30.2199 25.2193 31.8955C26.2281 33.4115 27.1624 34.5437 27.2954 34.4114C27.4284 34.2793 27.0224 32.6531 26.3931 30.798C23.4498 22.1205 20.6008 22.1225 17.656 30.8032C16.1434 35.2626 16.1697 35.2961 18.5826 31.9837C19.8096 30.2994 21.2122 29.1383 22.0201 29.1383V29.1391ZM18.923 15.4932C15.8541 14.1528 14.0968 11.367 14.0968 7.84262C14.0968 4.9623 14.4184 4.1631 16.3508 2.24144C18.2908 0.312269 19.0814 0 22.0256 0C24.9698 0 25.7604 0.312269 27.7003 2.24144C29.6403 4.17062 29.9543 4.95687 29.9543 7.88469C29.9543 10.7731 29.6325 11.6065 27.8216 13.4073C25.5452 15.6711 21.5009 16.6191 18.923 15.4932Z" fill="white"/>
</svg>
