<svg width="47" height="49" viewBox="0 0 47 49" fill="none" xmlns="http://www.w3.org/2000/svg">
<g clip-path="url(#clip0)">
<path d="M6.82719 43.9278C6.82719 39.1455 6.72505 38.7386 5.03952 36.8065C4.0563 35.6795 2.52164 33.176 1.62917 31.2433C0.266285 28.2918 0.00546311 26.9138 9.8807e-05 22.6362C-0.00552651 18.1854 0.224638 17.052 1.82478 13.6485C10.3802 -4.54868 36.6337 -4.54974 45.1718 13.6468C46.7655 17.0433 47 18.1965 47 22.6362C47 27.0793 46.7663 28.2262 45.1689 31.6238C40.7198 41.087 30.2302 46.7128 20.1498 45.042C16.7723 44.4822 16.49 44.5411 12.0497 46.731C9.51928 47.9789 7.30905 49 7.13806 49C6.96708 49 6.82719 46.7175 6.82719 43.9278ZM13.0783 26.8304C15.9268 25.5122 18.5975 24.4337 19.0133 24.4337C19.4291 24.4337 21.1151 25.5122 22.7601 26.8304C24.4051 28.1486 25.9851 29.2271 26.2713 29.2271C26.5574 29.2271 29.7294 26.2612 33.3201 22.6362C36.9107 19.0111 39.6789 16.0452 39.4715 16.0452C39.2641 16.0452 36.7639 17.1237 33.9154 18.4419C31.067 19.7601 28.3962 20.8386 27.9804 20.8386C27.5647 20.8386 25.8786 19.7601 24.2336 18.4419C22.5886 17.1237 21.0086 16.0452 20.7224 16.0452C20.4363 16.0452 17.2643 19.0111 13.6737 22.6362C10.083 26.2612 7.31484 29.2271 7.52224 29.2271C7.72963 29.2271 10.2299 28.1486 13.0783 26.8304Z" fill="white"/>
</g>
<defs>
<clipPath id="clip0">
<rect width="47" height="49" fill="white"/>
</clipPath>
</defs>
</svg>
