<svg width="33" height="50" viewBox="0 0 33 50" fill="none" xmlns="http://www.w3.org/2000/svg">
<path d="M11.6136 48.6012C10.7295 47.7353 10.1854 46.2699 10.1854 44.7545C10.1854 41.5386 12.2576 39.5091 15.5411 39.5091C18.8246 39.5091 20.8968 41.5386 20.8968 44.7545C20.8968 46.2699 20.3527 47.7353 19.4686 48.6012C18.5845 49.4671 17.0883 50 15.5411 50C13.9939 50 12.4977 49.4671 11.6136 48.6012ZM11.0612 29.2158C11.3729 25.5341 11.6398 25.0212 14.4265 22.7465C22.5144 16.1447 22.6106 16.0334 22.6106 13.2777C22.6106 9.79484 20.4411 8.03654 16.1436 8.03654C12.6035 8.03654 9.47128 10.3199 9.47128 12.9005C9.47128 14.1978 9.03029 14.3311 4.73564 14.3311H0L0.380434 11.5532C0.925057 7.57631 3.37499 4.11974 7.21263 1.91377C10.1353 0.23373 11.2846 -0.000264113 16.6122 2.2349e-07C21.4987 0.00026456 23.2562 0.300472 25.6271 1.53989C31.2736 4.49169 33.6702 8.97808 32.8398 15.042C32.3374 18.7106 30.1059 21.5804 25.5232 24.4516C21.395 27.038 20.1827 28.6199 20.1827 31.4202C20.1827 33.1659 20.0543 33.2146 15.4527 33.2146H10.7226L11.0612 29.2158Z" fill="white"/>
</svg>
