<?xml version="1.0" encoding="UTF-8" standalone="no" ?>
<!DOCTYPE svg PUBLIC "-//W3C//DTD SVG 1.1//EN" "http://www.w3.org/Graphics/SVG/1.1/DTD/svg11.dtd">
<svg xmlns="http://www.w3.org/2000/svg" xmlns:xlink="http://www.w3.org/1999/xlink" version="1.1" width="1280" height="1024" viewBox="0 0 1280 1024" xml:space="preserve">
<desc>Created with Fabric.js 3.6.3</desc>
<defs>
</defs>
<g transform="matrix(1.9692780337941629 0 0 1.9692780337941629 640.0153846153846 512.012312418764)" id="background-logo"  >
<rect style="stroke: none; stroke-width: 1; stroke-dasharray: none; stroke-linecap: butt; stroke-dashoffset: 0; stroke-linejoin: miter; stroke-miterlimit: 10; fill: none; fill-rule: nonzero; opacity: 1;"  paint-order="stroke"  x="-325" y="-260" rx="0" ry="0" width="650" height="520" />
</g>
<g transform="matrix(1.9692780337941629 0 0 1.9692780337941629 639.0656393074075 423.55258700947206)" id="logo-logo"  >
<g style=""  paint-order="stroke"   >
		<g transform="matrix(0.09 0 0 -0.09 -59.307719036276865 -10.360123836623188)"  >
<path style="stroke: none; stroke-width: 1; stroke-dasharray: none; stroke-linecap: butt; stroke-dashoffset: 0; stroke-linejoin: miter; stroke-miterlimit: 10; fill: rgb(232,0,0); fill-rule: evenodd; opacity: 1;"  paint-order="stroke"  transform=" translate(-1735.4524720522606, -2098.802913910087)" d="m 2373.56 3151.51 c -8.32 0.06 -16.73 -0.05 -25.23 -0.34 c -249.47 -8.74 -404.36 -104.01 -612.88 -291.84 c -208.52 187.83 -363.41 283.1 -612.87 291.84 c -8.5 0.29 -16.91 0.4 -25.24 0.34 c -255.906 -1.14 -430.953 -173.62 -512.219 -393.34 c -98.594 -266.56 -30.324 -551.47 126.981 -778.98 c 82.957 -119.98 193.425 -247.15 317.338 -370.77 c -28.84 -190.55 -55.081 -304 -133.237 -502.17 c -13.887 -26.11 -12.898 -38.93 -1.418 -41.06 c 73.25 -13.65 345.375 105.86 518.095 205.17 c 109.6 -85.53 219.15 -162.14 321.44 -224.28 l 1.13 0.69 l 1.13 -0.69 c 6.81 4.13 13.65 8.33 20.53 12.6 c 349.5 216.82 776.71 595.13 1001.69 920.51 c 157.31 227.51 225.58 512.42 126.98 778.98 c -81.26 219.72 -256.31 392.2 -512.22 393.34" stroke-linecap="round" />
</g>
		<g transform="matrix(0.09 0 0 -0.09 81.68228096372314 16.63987616337684)"  >
<path style="stroke: none; stroke-width: 1; stroke-dasharray: none; stroke-linecap: butt; stroke-dashoffset: 0; stroke-linejoin: miter; stroke-miterlimit: 10; fill: rgb(100,100,100); fill-rule: evenodd; opacity: 1;"  paint-order="stroke"  transform=" translate(-3373.2354259573303, -1785.1508880572687)" d="m 3993.05 858.512 c -74.14 184.178 -99.37 290.148 -126.7 466.248 c -0.29 1.84 -0.57 3.69 -0.86 5.55 c 85.22 83.42 163.73 168.54 230.5 251.6 c 22.08 28.31 42.81 56.38 61.97 84.03 c 148.22 213.89 212.56 481.75 119.65 732.35 c -78.84 212.69 -251.37 378.32 -504.31 369.47 c -235.49 -8.23 -381.55 -98.1 -578.57 -275.31 c -1.81 1.62 -3.61 3.24 -5.41 4.85 c -6.23 5.58 -12.41 11.08 -18.55 16.48 c -42.91 37.8 -83.59 71.29 -123.58 100.55 c 24.91 -239.38 -50.46 -479.95 -185.46 -680.94 c -110.29 -164.2 -264.77 -340.3 -436.16 -506.82 c 55.56 -60.61 115.63 -121.16 178.34 -180.27 c 182.29 -167.25 385.52 -322.073 566.86 -432.312 l 19.59 -11.785 c 98 58.32 202.97 130.27 307.94 210.597 c 3.13 -1.77 6.3 -3.55 9.5 -5.32 c 165.26 -91.984 417.79 -199.957 486.59 -187.394 c 10.97 1.992 11.92 13.996 -1.34 38.426" stroke-linecap="round" />
</g>
</g>
</g>
<g transform="matrix(1.9692780337941629 0 0 1.9692780337941629 632.5975142716826 745.5285642054052)" id="text-logo-path"  >
<path style="stroke: none; stroke-width: 1; stroke-dasharray: none; stroke-linecap: butt; stroke-dashoffset: 0; stroke-linejoin: miter; stroke-miterlimit: 10; fill: rgb(236,0,0); fill-rule: nonzero; opacity: 1;"  paint-order="stroke"  transform=" translate(-245.40499999999997, 19.29)" d="M 0.47 -0.77 L 0.47 -0.77 L 0.67 -4.48 Q 0.74 -5.09 0.89 -6.03 Q 1.04 -6.97 1.52 -7.58 L 1.52 -7.58 Q 2.7 -9.7 4.35 -12.2 Q 6 -14.69 8.34 -18.28 Q 10.68 -21.87 13.83 -26.94 Q 16.98 -32.01 21.12 -39.32 L 21.12 -39.32 L 5.39 -39.32 Q 4.85 -39.32 4.73 -39.54 Q 4.62 -39.76 4.62 -40.29 L 4.62 -40.29 L 4.82 -44.17 Q 4.89 -45.08 5.07 -45.94 Q 5.26 -46.8 5.76 -47.49 Q 6.27 -48.18 7.24 -48.58 Q 8.22 -48.99 9.8 -48.99 L 9.8 -48.99 L 36.15 -48.99 Q 36.56 -48.99 36.91 -48.79 Q 37.26 -48.58 37.26 -48.01 L 37.26 -48.01 L 36.99 -44.3 Q 36.86 -42.52 36.15 -41.34 L 36.15 -41.34 Q 35.95 -41 34.16 -38.05 Q 32.38 -35.11 29.61 -30.63 Q 26.85 -26.14 23.43 -20.64 Q 20.01 -15.13 16.58 -9.67 L 16.58 -9.67 L 34.1 -9.67 Q 34.5 -9.67 34.84 -9.45 Q 35.17 -9.23 35.17 -8.69 L 35.17 -8.69 L 34.9 -4.62 Q 34.77 -2.56 33.78 -1.28 Q 32.78 0 29.68 0 L 29.68 0 L 1.25 0 Q 0.47 0 0.47 -0.77 Z M 39.49 -16.21 L 39.49 -16.21 Q 39.49 -18.19 39.77 -20.65 Q 40.06 -23.11 40.75 -25.61 Q 41.44 -28.1 42.69 -30.44 Q 43.93 -32.78 45.82 -34.6 Q 47.71 -36.42 50.37 -37.53 Q 53.03 -38.64 56.6 -38.64 L 56.6 -38.64 Q 60.04 -38.64 62.16 -37.43 Q 64.28 -36.22 64.82 -33.25 L 64.82 -33.25 Q 64.96 -35.95 65.09 -37.95 Q 65.23 -39.96 65.33 -41.68 Q 65.43 -43.39 65.58 -45.13 Q 65.73 -46.86 65.87 -49.05 L 65.87 -49.05 Q 65.93 -50.57 66.2 -50.84 L 66.2 -50.84 Q 66.34 -50.98 66.54 -51.03 Q 66.74 -51.08 67.32 -51.08 L 67.32 -51.08 L 70.01 -51.08 Q 72.07 -51.08 73.45 -50.59 Q 74.83 -50.1 75.65 -49.27 Q 76.48 -48.45 76.83 -47.37 Q 77.19 -46.29 77.19 -45.11 L 77.19 -45.11 Q 77.19 -45.11 77.05 -43.39 L 77.05 -43.39 Q 76.88 -41.68 76.68 -38.81 Q 76.48 -35.95 76.21 -32.29 Q 75.94 -28.64 75.65 -24.73 Q 75.37 -20.82 75.1 -17 Q 74.83 -13.17 74.56 -9.97 Q 74.29 -6.77 74.1 -4.45 Q 73.92 -2.12 73.85 -1.38 L 73.85 -1.38 Q 73.72 -0.54 73.51 -0.27 Q 73.31 0 72.34 0 L 72.34 0 L 69.88 0 Q 68.43 0 67.15 -0.24 Q 65.87 -0.47 64.92 -1.06 Q 63.98 -1.65 63.47 -2.66 Q 62.97 -3.67 62.97 -5.26 L 62.97 -5.26 Q 61.72 -2.63 59.21 -0.98 Q 56.7 0.67 52.9 0.67 L 52.9 0.67 Q 50.2 0.67 47.74 -0.29 Q 45.28 -1.25 43.46 -3.32 Q 41.64 -5.39 40.56 -8.56 Q 39.49 -11.72 39.49 -16.21 Z M 51.99 -18.16 L 51.99 -18.16 Q 51.99 -16.37 52.22 -14.64 Q 52.46 -12.9 53.08 -11.52 Q 53.7 -10.14 54.78 -9.32 Q 55.86 -8.49 57.51 -8.49 L 57.51 -8.49 Q 60.48 -8.49 62.48 -11.39 Q 64.49 -14.29 64.49 -20.48 L 64.49 -20.48 Q 64.49 -22.2 64.28 -23.84 Q 64.08 -25.47 63.46 -26.7 Q 62.83 -27.93 61.72 -28.69 Q 60.61 -29.45 58.89 -29.45 L 58.89 -29.45 Q 55.39 -29.45 53.69 -26.38 Q 51.99 -23.31 51.99 -18.16 Z M 82.27 -6.57 L 82.27 -6.57 Q 82.27 -7.61 82.38 -9.5 Q 82.48 -11.39 82.76 -14.74 Q 83.05 -18.09 83.42 -23.23 Q 83.79 -28.37 84.33 -35.95 L 84.33 -35.95 Q 84.46 -37.94 85.78 -37.94 L 85.78 -37.94 L 88.47 -37.94 Q 90.39 -37.94 91.72 -37.53 Q 93.06 -37.13 93.88 -36.4 Q 94.71 -35.68 95.08 -34.7 Q 95.45 -33.73 95.58 -32.71 L 95.58 -32.71 Q 96.42 -34.3 97.55 -35.43 Q 98.68 -36.56 99.93 -37.28 Q 101.18 -38 102.49 -38.32 Q 103.8 -38.64 104.92 -38.64 L 104.92 -38.64 Q 106.23 -38.64 107.58 -38.16 Q 108.92 -37.67 110.02 -36.71 Q 111.11 -35.75 111.77 -34.23 Q 112.43 -32.71 112.43 -30.63 L 112.43 -30.63 Q 112.43 -28.77 111.87 -27.12 Q 111.32 -25.47 110.29 -24.19 Q 109.26 -22.91 107.76 -22.19 Q 106.26 -21.46 104.48 -21.46 L 104.48 -21.46 Q 104.07 -21.46 103.55 -21.5 Q 103.03 -21.53 102.56 -21.63 Q 102.08 -21.73 101.73 -21.9 Q 101.38 -22.07 101.38 -22.37 L 101.38 -22.37 Q 101.38 -23.28 101.44 -24.02 Q 101.51 -24.76 101.51 -25.61 L 101.51 -25.61 Q 101.51 -27.12 101.11 -28.08 Q 100.7 -29.04 99.46 -29.04 L 99.46 -29.04 Q 97.54 -29.04 96.26 -26.53 Q 94.98 -24.02 94.64 -18.97 L 94.64 -18.97 Q 94.5 -16.74 94.25 -13.97 Q 94 -11.19 93.8 -8.59 Q 93.59 -6 93.46 -3.99 Q 93.33 -1.99 93.33 -1.38 L 93.33 -1.38 Q 93.33 -0.71 92.84 -0.35 Q 92.35 0 91.81 0 L 91.81 0 L 89.32 0 Q 87.19 0 85.85 -0.45 Q 84.5 -0.91 83.69 -1.74 Q 82.88 -2.56 82.58 -3.76 Q 82.27 -4.95 82.27 -6.57 Z M 114.38 -16.58 L 114.38 -16.58 Q 114.38 -20.72 115.39 -24.68 Q 116.4 -28.64 118.81 -31.74 Q 121.22 -34.84 125.2 -36.74 Q 129.17 -38.64 135.1 -38.64 L 135.1 -38.64 Q 143.79 -38.64 147.55 -34.4 Q 151.31 -30.15 151.31 -22.51 L 151.31 -22.51 Q 151.31 -20.38 151 -17.79 Q 150.7 -15.19 149.83 -12.63 Q 148.95 -10.07 147.47 -7.66 Q 145.98 -5.26 143.71 -3.39 Q 141.44 -1.52 138.24 -0.42 Q 135.04 0.67 130.69 0.67 L 130.69 0.67 Q 125.94 0.67 122.79 -0.66 Q 119.64 -1.99 117.77 -4.35 Q 115.9 -6.7 115.14 -9.84 Q 114.38 -12.97 114.38 -16.58 Z M 126.14 -17.32 L 126.14 -17.32 Q 126.14 -12.77 127.59 -10.63 Q 129.04 -8.49 131.7 -8.49 L 131.7 -8.49 Q 134.13 -8.49 135.68 -10.01 Q 137.23 -11.52 138.08 -13.66 Q 138.94 -15.8 139.26 -18.14 Q 139.58 -20.48 139.58 -22.07 L 139.58 -22.07 Q 139.58 -25.5 138.3 -27.48 Q 137.02 -29.45 133.92 -29.45 L 133.92 -29.45 Q 131.3 -29.45 129.75 -28.12 Q 128.2 -26.78 127.4 -24.88 Q 126.61 -22.98 126.38 -20.87 Q 126.14 -18.77 126.14 -17.32 Z M 154.27 -36.35 L 154.27 -36.35 Q 154.27 -36.96 154.9 -37.45 Q 155.52 -37.94 156.46 -37.94 L 156.46 -37.94 Q 159.43 -37.94 161.57 -37.7 Q 163.71 -37.46 165.12 -36.84 Q 166.54 -36.22 167.29 -35.12 Q 168.05 -34.03 168.29 -32.21 L 168.29 -32.21 Q 168.36 -31.23 168.56 -28.28 Q 168.76 -25.34 169 -21.56 Q 169.23 -17.79 169.48 -13.93 Q 169.74 -10.07 169.94 -7.38 L 169.94 -7.38 Q 170.78 -11.66 171.29 -14.22 Q 171.79 -16.78 172.13 -18.5 Q 172.47 -20.21 172.72 -21.53 Q 172.97 -22.84 173.31 -24.63 Q 173.65 -26.41 174.1 -29.11 Q 174.56 -31.8 175.36 -36.29 L 175.36 -36.29 Q 175.63 -37.94 179.04 -37.94 L 179.04 -37.94 Q 181.16 -37.94 183.03 -37.8 Q 184.9 -37.67 186.35 -37.14 Q 187.8 -36.62 188.84 -35.63 Q 189.88 -34.63 190.29 -32.92 L 190.29 -32.92 Q 190.42 -32.44 190.52 -31.96 Q 190.63 -31.47 190.76 -30.57 Q 190.9 -29.68 191.06 -28.08 Q 191.23 -26.48 191.49 -23.8 Q 191.74 -21.12 192.09 -17.12 Q 192.45 -13.11 192.98 -7.38 L 192.98 -7.38 Q 193.89 -12.43 194.53 -16.19 Q 195.17 -19.95 195.63 -22.71 Q 196.08 -25.47 196.39 -27.46 Q 196.69 -29.45 196.94 -31.01 Q 197.2 -32.58 197.36 -33.78 Q 197.53 -34.97 197.73 -36.29 L 197.73 -36.29 Q 197.87 -37.06 198.46 -37.46 Q 199.05 -37.87 200.7 -37.87 L 200.7 -37.87 Q 201.61 -37.87 203.23 -37.77 Q 204.84 -37.67 206.43 -37.26 Q 208.01 -36.86 209.16 -35.98 Q 210.3 -35.11 210.3 -33.59 L 210.3 -33.59 Q 210.3 -32.48 209.68 -30.32 Q 209.06 -28.17 208.09 -25.34 Q 207.13 -22.51 205.89 -19.29 Q 204.64 -16.07 203.36 -12.94 Q 202.08 -9.8 200.9 -6.97 Q 199.72 -4.14 198.91 -2.06 L 198.91 -2.06 Q 198.38 -0.81 197.85 -0.4 Q 197.33 0 196.02 0 L 196.02 0 L 191.94 0 Q 190.02 0 188.77 -0.49 Q 187.53 -0.98 186.77 -1.8 Q 186.01 -2.63 185.59 -3.69 Q 185.17 -4.75 184.97 -6 L 184.97 -6 Q 184.29 -9.5 183.53 -15.45 Q 182.78 -21.39 182.14 -29.45 L 182.14 -29.45 Q 181.8 -27.93 181.34 -25.39 Q 180.89 -22.84 180.38 -19.88 Q 179.88 -16.91 179.32 -13.8 Q 178.77 -10.68 178.28 -8.04 Q 177.79 -5.39 177.39 -3.49 Q 176.98 -1.58 176.68 -1.04 L 176.68 -1.04 Q 176.34 -0.37 175.82 -0.19 Q 175.3 0 174.35 0 L 174.35 0 L 169.5 0 Q 167.72 0 166.44 -0.52 Q 165.16 -1.04 164.23 -1.87 Q 163.3 -2.7 162.71 -3.76 Q 162.12 -4.82 161.85 -6 L 161.85 -6 Q 158.05 -20.75 156.16 -28.28 Q 154.27 -35.81 154.27 -36.35 Z M 212.63 -15.46 L 212.63 -15.46 Q 212.63 -17.18 212.91 -19.59 Q 213.2 -22 213.99 -24.56 Q 214.78 -27.12 216.2 -29.63 Q 217.61 -32.14 219.89 -34.15 Q 222.16 -36.15 225.4 -37.4 Q 228.63 -38.64 233.14 -38.64 L 233.14 -38.64 Q 236.72 -38.64 239.21 -37.82 Q 241.7 -36.99 243.22 -35.58 Q 244.73 -34.16 245.43 -32.29 Q 246.12 -30.42 246.12 -28.3 L 246.12 -28.3 Q 246.12 -25.13 244.84 -22.91 Q 243.56 -20.69 241.52 -19.2 Q 239.48 -17.72 237 -16.9 Q 234.53 -16.07 232.1 -15.63 Q 229.67 -15.19 227.64 -15.08 Q 225.6 -14.96 224.52 -14.96 L 224.52 -14.96 Q 224.52 -13.65 224.89 -12.38 Q 225.26 -11.12 226.02 -10.14 Q 226.78 -9.16 228.02 -8.56 Q 229.27 -7.95 231.06 -7.95 L 231.06 -7.95 Q 232.84 -7.95 233.85 -8.52 Q 234.86 -9.1 235.49 -9.82 Q 236.11 -10.55 236.55 -11.14 Q 236.99 -11.72 237.76 -11.72 L 237.76 -11.72 Q 238.1 -11.72 238.96 -11.56 Q 239.82 -11.39 240.73 -10.83 Q 241.63 -10.28 242.31 -9.32 Q 242.98 -8.36 242.98 -6.84 L 242.98 -6.84 Q 242.98 -4.85 241.75 -3.39 Q 240.52 -1.92 238.55 -1.03 Q 236.58 -0.13 234.17 0.27 Q 231.76 0.67 229.47 0.67 L 229.47 0.67 Q 226.44 0.67 223.44 -0.08 Q 220.44 -0.84 218.05 -2.7 Q 215.66 -4.55 214.14 -7.65 Q 212.63 -10.75 212.63 -15.46 Z M 224.72 -20.48 L 224.72 -20.48 Q 229 -20.55 231.65 -21.93 Q 234.29 -23.31 234.29 -25.88 L 234.29 -25.88 Q 234.29 -27.26 233.43 -28.35 Q 232.57 -29.45 230.79 -29.45 L 230.79 -29.45 Q 229.27 -29.45 228.19 -28.59 Q 227.11 -27.73 226.39 -26.41 Q 225.67 -25.1 225.29 -23.52 Q 224.92 -21.93 224.72 -20.48 Z M 265.72 -6.13 L 265.72 -6.13 Q 265.72 -6.97 265.84 -8.95 Q 265.96 -10.92 266.16 -13.59 Q 266.36 -16.27 266.6 -19.49 Q 266.84 -22.71 267.11 -26.01 L 267.11 -26.01 Q 267.64 -32.98 267.9 -37.33 Q 268.15 -41.68 268.28 -44.17 L 268.28 -44.17 Q 268.49 -47.27 268.71 -48.13 Q 268.92 -48.99 269.6 -48.99 L 269.6 -48.99 Q 271.72 -48.99 273.98 -49.09 Q 276.24 -49.19 278.31 -49.32 Q 280.38 -49.46 282.2 -49.58 Q 284.02 -49.69 285.47 -49.69 L 285.47 -49.69 Q 289.88 -49.69 293.06 -48.58 Q 296.25 -47.47 298.2 -45.47 Q 300.16 -43.46 301.1 -40.63 Q 302.04 -37.8 302.04 -34.3 L 302.04 -34.3 Q 302.04 -28.91 299.9 -24.7 Q 297.76 -20.48 293.05 -18.29 L 293.05 -18.29 L 298.84 -10.01 Q 300.43 -7.65 301.27 -6.38 Q 302.11 -5.12 302.11 -4.48 L 302.11 -4.48 Q 302.11 -4.01 301.52 -3.15 Q 300.93 -2.29 299.79 -1.42 Q 298.64 -0.54 297.02 0.07 Q 295.41 0.67 293.42 0.67 L 293.42 0.67 Q 291.19 0.67 289.58 -0.77 Q 287.96 -2.22 286.68 -4.6 Q 285.4 -6.97 284.47 -10.07 Q 283.55 -13.17 282.7 -16.58 L 282.7 -16.58 Q 280.21 -16.71 278.63 -17.05 L 278.63 -17.05 Q 278.43 -14.02 278.22 -11.25 Q 278.02 -8.49 277.89 -6.32 Q 277.75 -4.14 277.62 -2.73 Q 277.48 -1.31 277.48 -1.04 L 277.48 -1.04 Q 277.42 -0.51 277.2 -0.25 Q 276.98 0 276.37 0 L 276.37 0 L 272.9 0 Q 268.96 0 267.34 -1.55 Q 265.72 -3.1 265.72 -6.13 Z M 279.27 -26.08 L 279.27 -26.08 Q 281.69 -25.54 283.48 -25.54 L 283.48 -25.54 Q 285.6 -25.54 286.95 -26.36 Q 288.3 -27.19 289.06 -28.4 Q 289.81 -29.61 290.07 -31 Q 290.32 -32.38 290.32 -33.46 L 290.32 -33.46 Q 290.32 -36.29 288.92 -37.8 Q 287.52 -39.32 284.09 -39.32 L 284.09 -39.32 Q 283.24 -39.32 282.22 -39.22 Q 281.19 -39.12 280.01 -38.98 L 280.01 -38.98 Q 279.87 -36.56 279.71 -33.22 Q 279.54 -29.88 279.27 -26.08 Z M 306.22 -15.46 L 306.22 -15.46 Q 306.22 -17.18 306.51 -19.59 Q 306.79 -22 307.59 -24.56 Q 308.38 -27.12 309.79 -29.63 Q 311.21 -32.14 313.48 -34.15 Q 315.76 -36.15 318.99 -37.4 Q 322.22 -38.64 326.74 -38.64 L 326.74 -38.64 Q 330.31 -38.64 332.8 -37.82 Q 335.3 -36.99 336.81 -35.58 Q 338.33 -34.16 339.02 -32.29 Q 339.71 -30.42 339.71 -28.3 L 339.71 -28.3 Q 339.71 -25.13 338.43 -22.91 Q 337.15 -20.69 335.11 -19.2 Q 333.07 -17.72 330.6 -16.9 Q 328.12 -16.07 325.69 -15.63 Q 323.27 -15.19 321.23 -15.08 Q 319.19 -14.96 318.11 -14.96 L 318.11 -14.96 Q 318.11 -13.65 318.48 -12.38 Q 318.86 -11.12 319.61 -10.14 Q 320.37 -9.16 321.62 -8.56 Q 322.86 -7.95 324.65 -7.95 L 324.65 -7.95 Q 326.44 -7.95 327.45 -8.52 Q 328.46 -9.1 329.08 -9.82 Q 329.7 -10.55 330.14 -11.14 Q 330.58 -11.72 331.35 -11.72 L 331.35 -11.72 Q 331.69 -11.72 332.55 -11.56 Q 333.41 -11.39 334.32 -10.83 Q 335.23 -10.28 335.9 -9.32 Q 336.58 -8.36 336.58 -6.84 L 336.58 -6.84 Q 336.58 -4.85 335.35 -3.39 Q 334.12 -1.92 332.15 -1.03 Q 330.18 -0.13 327.77 0.27 Q 325.36 0.67 323.07 0.67 L 323.07 0.67 Q 320.03 0.67 317.04 -0.08 Q 314.04 -0.84 311.65 -2.7 Q 309.25 -4.55 307.74 -7.65 Q 306.22 -10.75 306.22 -15.46 Z M 318.32 -20.48 L 318.32 -20.48 Q 322.6 -20.55 325.24 -21.93 Q 327.88 -23.31 327.88 -25.88 L 327.88 -25.88 Q 327.88 -27.26 327.03 -28.35 Q 326.17 -29.45 324.38 -29.45 L 324.38 -29.45 Q 322.86 -29.45 321.79 -28.59 Q 320.71 -27.73 319.98 -26.41 Q 319.26 -25.1 318.89 -23.52 Q 318.52 -21.93 318.32 -20.48 Z M 343.82 -9.16 L 343.82 -9.16 Q 343.82 -10.01 343.92 -11.25 Q 344.02 -12.5 344.19 -14.45 Q 344.36 -16.41 344.65 -19.31 Q 344.93 -22.2 345.24 -26.35 Q 345.54 -30.49 345.93 -36.08 Q 346.31 -41.68 346.72 -49.05 L 346.72 -49.05 Q 346.79 -50.57 347.06 -50.84 L 347.06 -50.84 Q 347.26 -51.04 348.17 -51.08 L 348.17 -51.08 L 350.86 -51.08 Q 352.92 -51.08 354.3 -50.59 Q 355.68 -50.1 356.51 -49.27 Q 357.33 -48.45 357.68 -47.37 Q 358.04 -46.29 358.04 -45.11 L 358.04 -45.11 Q 358.04 -43.73 357.87 -41.15 Q 357.7 -38.58 357.42 -35.33 Q 357.13 -32.07 356.86 -28.55 Q 356.59 -25.03 356.3 -21.83 Q 356.02 -18.63 355.85 -16.07 Q 355.68 -13.51 355.68 -12.2 L 355.68 -12.2 Q 355.68 -10.41 356.34 -9.65 Q 356.99 -8.89 357.75 -8.59 Q 358.51 -8.29 359.17 -8.19 Q 359.82 -8.09 359.82 -7.72 L 359.82 -7.72 Q 359.82 -6.2 359.49 -4.72 Q 359.15 -3.23 358.24 -2.04 Q 357.33 -0.84 355.8 -0.12 Q 354.27 0.61 351.84 0.61 L 351.84 0.61 Q 347.56 0.61 345.69 -1.67 Q 343.82 -3.94 343.82 -9.16 Z M 362.59 -8.49 L 362.59 -8.49 Q 362.59 -14.69 368.16 -18.21 Q 373.74 -21.73 384.65 -22 L 384.65 -22 Q 384.72 -22.78 384.76 -23.3 Q 384.79 -23.82 384.79 -24.56 L 384.79 -24.56 Q 384.79 -26.78 383.96 -28.08 Q 383.14 -29.38 380.51 -29.38 L 380.51 -29.38 Q 379.06 -29.38 378.17 -28.97 Q 377.28 -28.57 376.72 -27.85 Q 376.16 -27.12 375.83 -26.08 Q 375.49 -25.03 375.19 -23.82 L 375.19 -23.82 Q 375.05 -23.21 374.58 -23.03 Q 374.11 -22.84 373.06 -22.84 L 373.06 -22.84 Q 366.02 -22.84 366.02 -28.17 L 366.02 -28.17 Q 366.02 -30.29 367.02 -32.23 Q 368.01 -34.16 369.98 -35.58 Q 371.95 -36.99 374.92 -37.82 Q 377.88 -38.64 381.82 -38.64 L 381.82 -38.64 Q 389.47 -38.64 392.93 -35.46 Q 396.38 -32.28 396.38 -26.48 L 396.38 -26.48 Q 396.38 -25.71 396.21 -23.75 Q 396.04 -21.8 395.79 -19.63 Q 395.54 -17.45 395.37 -15.51 Q 395.2 -13.58 395.2 -12.84 L 395.2 -12.84 Q 395.2 -11.12 395.82 -10.39 Q 396.45 -9.67 397.24 -9.38 Q 398.03 -9.1 398.65 -8.96 Q 399.28 -8.83 399.28 -8.29 L 399.28 -8.29 Q 399.28 -6.77 398.86 -5.17 Q 398.43 -3.57 397.51 -2.27 Q 396.58 -0.98 394.96 -0.15 Q 393.35 0.67 390.99 0.67 L 390.99 0.67 Q 387.69 0.67 386.04 -0.91 Q 384.39 -2.49 383.81 -5.32 L 383.81 -5.32 Q 382.16 -2.9 379.5 -1.11 Q 376.84 0.67 372.56 0.67 L 372.56 0.67 Q 370.5 0.67 368.69 0.2 Q 366.87 -0.27 365.52 -1.38 Q 364.17 -2.49 363.38 -4.25 Q 362.59 -6 362.59 -8.49 Z M 374.45 -11.32 L 374.45 -11.32 Q 374.45 -9.74 375.44 -9.11 Q 376.43 -8.49 377.61 -8.49 L 377.61 -8.49 Q 378.73 -8.49 379.82 -8.98 Q 380.92 -9.47 381.77 -10.46 Q 382.63 -11.46 383.26 -12.9 Q 383.88 -14.35 384.01 -16.34 L 384.01 -16.34 Q 382.23 -16.34 380.51 -16.07 Q 378.79 -15.8 377.44 -15.21 Q 376.1 -14.62 375.27 -13.66 Q 374.45 -12.7 374.45 -11.32 Z M 402.65 -16.58 L 402.65 -16.58 Q 402.65 -18.36 402.9 -20.67 Q 403.15 -22.98 403.91 -25.42 Q 404.67 -27.86 405.95 -30.25 Q 407.23 -32.65 409.37 -34.5 Q 411.51 -36.35 414.51 -37.5 Q 417.5 -38.64 421.65 -38.64 L 421.65 -38.64 Q 425.02 -38.64 427.46 -37.85 Q 429.9 -37.06 431.5 -35.71 Q 433.1 -34.37 433.89 -32.56 Q 434.69 -30.76 434.69 -28.71 L 434.69 -28.71 Q 434.69 -24.97 432.33 -23.21 Q 429.97 -21.46 425.69 -21.46 L 425.69 -21.46 Q 424.65 -21.46 424.28 -21.63 Q 423.91 -21.8 423.91 -22.44 L 423.91 -22.44 Q 423.91 -24.09 423.84 -25.4 Q 423.77 -26.72 423.47 -27.61 Q 423.16 -28.5 422.54 -28.97 Q 421.92 -29.45 420.74 -29.45 L 420.74 -29.45 Q 418.62 -29.45 417.34 -28.08 Q 416.06 -26.72 415.4 -24.75 Q 414.74 -22.78 414.57 -20.7 Q 414.4 -18.63 414.4 -17.25 L 414.4 -17.25 Q 414.4 -12.36 415.95 -10.43 Q 417.5 -8.49 420.87 -8.49 L 420.87 -8.49 Q 422.86 -8.49 424.36 -9.05 Q 425.86 -9.6 426.95 -10.29 Q 428.05 -10.98 428.81 -11.52 Q 429.57 -12.06 430.21 -12.06 L 430.21 -12.06 Q 431.79 -12.06 431.79 -10.01 L 431.79 -10.01 Q 431.79 -9.53 431.57 -8.66 Q 431.35 -7.78 431.01 -6.86 Q 430.68 -5.93 430.29 -5.1 Q 429.9 -4.28 429.57 -3.87 L 429.57 -3.87 Q 429.23 -3.54 428.37 -2.76 Q 427.51 -1.99 426.06 -1.23 Q 424.61 -0.47 422.68 0.1 Q 420.74 0.67 418.38 0.67 L 418.38 0.67 Q 415.75 0.67 412.97 -0.12 Q 410.19 -0.91 407.9 -2.86 Q 405.61 -4.82 404.13 -8.17 Q 402.65 -11.52 402.65 -16.58 Z M 425.42 7.24 L 425.42 7.24 Q 425.42 5.59 426.42 4.63 Q 427.41 3.67 428.76 3.18 Q 430.1 2.7 431.38 2.56 Q 432.67 2.43 433.27 2.43 L 433.27 2.43 Q 433.47 2.43 433.66 2.8 Q 433.84 3.17 434.08 3.62 Q 434.32 4.08 434.74 4.45 Q 435.16 4.82 435.9 4.82 L 435.9 4.82 Q 436.74 4.82 437.18 4.16 Q 437.62 3.5 437.9 1.99 Q 438.19 0.47 438.39 -2.04 Q 438.59 -4.55 438.8 -8.36 L 438.8 -8.36 L 440.58 -36.93 Q 440.58 -37.53 440.82 -37.73 L 440.82 -37.73 Q 441.02 -37.94 442.1 -37.94 L 442.1 -37.94 L 444.59 -37.94 Q 446.31 -37.94 447.66 -37.5 Q 449.01 -37.06 449.95 -36.4 Q 450.89 -35.75 451.36 -34.92 Q 451.84 -34.1 451.84 -33.25 L 451.84 -33.25 Q 451.84 -32.85 451.73 -31.01 Q 451.63 -29.18 451.43 -26.46 Q 451.23 -23.75 450.98 -20.47 Q 450.72 -17.18 450.49 -13.83 Q 450.25 -10.48 450.02 -7.38 Q 449.78 -4.28 449.65 -1.99 L 449.65 -1.99 Q 449.31 2.9 448.1 5.9 Q 446.88 8.89 445.15 10.6 Q 443.41 12.3 441.27 12.87 Q 439.13 13.44 436.88 13.44 L 436.88 13.44 Q 434.89 13.44 432.85 13.07 Q 430.81 12.7 429.14 11.94 Q 427.48 11.19 426.45 10.01 Q 425.42 8.83 425.42 7.24 Z M 439.91 -46.09 L 439.91 -46.09 Q 439.91 -48.85 441.91 -50.44 Q 443.92 -52.02 447.29 -52.02 L 447.29 -52.02 Q 450.25 -52.02 451.6 -50.82 Q 452.95 -49.63 452.95 -47.61 L 452.95 -47.61 Q 452.95 -45.05 451.04 -43.36 Q 449.14 -41.68 445.5 -41.68 L 445.5 -41.68 Q 439.91 -41.68 439.91 -46.09 Z M 456.86 -15.46 L 456.86 -15.46 Q 456.86 -17.18 457.14 -19.59 Q 457.43 -22 458.22 -24.56 Q 459.01 -27.12 460.43 -29.63 Q 461.84 -32.14 464.12 -34.15 Q 466.39 -36.15 469.62 -37.4 Q 472.86 -38.64 477.37 -38.64 L 477.37 -38.64 Q 480.94 -38.64 483.44 -37.82 Q 485.93 -36.99 487.45 -35.58 Q 488.96 -34.16 489.65 -32.29 Q 490.34 -30.42 490.34 -28.3 L 490.34 -28.3 Q 490.34 -25.13 489.06 -22.91 Q 487.78 -20.69 485.75 -19.2 Q 483.71 -17.72 481.23 -16.9 Q 478.75 -16.07 476.33 -15.63 Q 473.9 -15.19 471.86 -15.08 Q 469.83 -14.96 468.75 -14.96 L 468.75 -14.96 Q 468.75 -13.65 469.12 -12.38 Q 469.49 -11.12 470.25 -10.14 Q 471.01 -9.16 472.25 -8.56 Q 473.5 -7.95 475.28 -7.95 L 475.28 -7.95 Q 477.07 -7.95 478.08 -8.52 Q 479.09 -9.1 479.72 -9.82 Q 480.34 -10.55 480.78 -11.14 Q 481.21 -11.72 481.99 -11.72 L 481.99 -11.72 Q 482.33 -11.72 483.19 -11.56 Q 484.04 -11.39 484.95 -10.83 Q 485.86 -10.28 486.54 -9.32 Q 487.21 -8.36 487.21 -6.84 L 487.21 -6.84 Q 487.21 -4.85 485.98 -3.39 Q 484.75 -1.92 482.78 -1.03 Q 480.81 -0.13 478.4 0.27 Q 475.99 0.67 473.7 0.67 L 473.7 0.67 Q 470.67 0.67 467.67 -0.08 Q 464.67 -0.84 462.28 -2.7 Q 459.89 -4.55 458.37 -7.65 Q 456.86 -10.75 456.86 -15.46 Z M 468.95 -20.48 L 468.95 -20.48 Q 473.23 -20.55 475.87 -21.93 Q 478.52 -23.31 478.52 -25.88 L 478.52 -25.88 Q 478.52 -27.26 477.66 -28.35 Q 476.8 -29.45 475.02 -29.45 L 475.02 -29.45 Q 473.5 -29.45 472.42 -28.59 Q 471.34 -27.73 470.62 -26.41 Q 469.89 -25.1 469.52 -23.52 Q 469.15 -21.93 468.95 -20.48 Z" stroke-linecap="round" />
</g>
</svg>