<svg width="49" height="54" viewBox="0 0 49 54" fill="none" xmlns="http://www.w3.org/2000/svg">
<g clip-path="url(#clip0)">
<path d="M17.6676 52.9035C10.1312 50.6826 5.03083 46.1082 1.98325 38.8369C0.25886 34.7225 0.0121684 33.2469 0.000538689 26.9768C-0.0116676 20.3859 0.16712 19.4157 2.24573 14.7941C7.26597 3.63199 18.5431 -1.9812 30.6919 0.634989C41.3722 2.93496 47.7975 10.2959 48.8579 21.4463C49.6491 29.7659 47.0974 36.6572 42.1989 39.4299C38.3037 41.6347 31.4048 40.2233 30.2538 36.9862C29.8085 35.7338 29.6955 35.75 28.596 37.2242C26.0569 40.6284 21.333 41.5672 17.5417 39.4212C11.0267 35.7336 10.2378 21.6337 16.2372 16.1081C19.3291 13.2604 24.4361 13.3989 27.1823 16.4049L29.1909 18.6034V16.781C29.1909 15.0954 29.449 14.9585 32.6266 14.9585H36.0623V23.5466C36.0623 33.3692 36.3099 34.5141 38.4344 34.5141C41.0388 34.5141 42.5013 31.9141 42.8017 26.7501C43.5516 13.8595 36.8068 5.9475 25.068 5.9475C12.7803 5.9475 5.07583 15.3323 5.98487 29.1927C6.80363 41.6766 14.8736 48.582 27.888 47.935L33.3138 47.6653V50.3929C33.3138 52.9606 33.1626 53.148 30.737 53.5869C26.6571 54.325 21.5928 54.0602 17.6676 52.9035V52.9035ZM27.0786 32.7007C28.1511 31.2861 28.7778 26.786 28.2331 24.4104C27.6655 21.9348 24.9063 19.9394 22.9775 20.6095C19.7949 21.7151 18.7199 29.7144 21.3648 32.6094C22.6847 34.0541 26.0121 34.1073 27.0786 32.7007V32.7007Z" fill="white"/>
</g>
<defs>
<clipPath id="clip0">
<rect width="49" height="54" fill="white"/>
</clipPath>
</defs>
</svg>
