<svg width="71" height="62" viewBox="0 0 71 62" fill="none" xmlns="http://www.w3.org/2000/svg">
<path d="M57.6667 5.33325C53.9334 5.33325 51 9.06659 51 9.06659C51 9.06659 48.0667 5.33325 44.3334 5.33325C40.6 5.33325 37.6667 8.26658 37.6667 11.9999C37.6667 21.0666 51 28.3999 51 28.3999C51 28.3999 64.3334 21.0666 64.3334 11.9999C64.3334 8.26658 61.4 5.33325 57.6667 5.33325Z" fill="white"/>
<g clip-path="url(#clip0)">
<path d="M28.3874 56.9755C21.148 54.0104 14.6533 51.5844 13.9547 51.5844C13.2561 51.5844 9.83047 52.7805 6.34224 54.2424L0 56.9004V46.2226V35.5449L4.33764 33.9757C6.72333 33.1127 10.061 31.8651 11.7546 31.2033C13.4483 30.5415 15.5935 30 16.5218 30C18.8431 30 44.8997 41.3878 45.8099 42.8001C46.9223 44.5261 46.723 45.9117 45.1375 47.4731C42.6179 49.9546 45.8597 49.2058 56.718 44.7985C62.6617 42.386 67.4928 40.9305 68.5056 41.2471C70.4478 41.8542 71.5326 44.3614 70.7368 46.4039C70.2026 47.7749 46.3723 61.2719 43.224 61.9866C42.3033 62.1956 35.6268 59.9406 28.3874 56.9755Z" fill="white"/>
</g>
<defs>
<clipPath id="clip0">
<rect width="71" height="32" fill="white" transform="translate(0 30)"/>
</clipPath>
</defs>
</svg>
